<?xml version="1.0" encoding="UTF-8" standalone="no"?><svg xmlns="http://www.w3.org/2000/svg" xmlns:xlink="http://www.w3.org/1999/xlink" clip-rule="evenodd" stroke-miterlimit="10" viewBox="0 0 1024 768"><desc>SVG generated by Keynote</desc><defs></defs><g transform="matrix(1.00, 0.00, -0.00, -1.00, 0.0, 768.0)"><g><clipPath id="clip0x600001aa2640"><path d="M 0.0 768.0 L 1024.0 768.0 L 1024.0 0.0 L 0.0 0.0 Z M 0.0 768.0 "></path></clipPath><g clip-path="url(#clip0x600001aa2640)"><image xlink:href="../../D1633A7A-1E45-48FF-BA06-56002168097B/assets/4E131E180F71435CE7831D195B770FC0.jpeg" width="2048.00" height="1536.00" transform="matrix(0.50, 0.00, -0.00, -0.50, 0.0, 768.0)"></image></g></g><text xml:space="preserve" font-family="Helvetica-Light,Helvetica" font-size="80.0" fill="#FEFFFF" transform="matrix(1.00, 0.00, -0.00, -1.00, 163.0, 628.3)">N</text><text xml:space="preserve" font-family="Helvetica-Light,Helvetica" font-size="80.0" fill="#FEFFFF" transform="matrix(1.00, 0.00, -0.00, -1.00, 220.8, 628.3)">S</text><text xml:space="preserve" font-family="Helvetica-Light,Helvetica" font-size="80.0" fill="#FEFFFF" transform="matrix(1.00, 0.00, -0.00, -1.00, 269.6, 628.3)">O</text><text xml:space="preserve" font-family="Helvetica-Light,Helvetica" font-size="80.0" fill="#FEFFFF" transform="matrix(1.00, 0.00, -0.00, -1.00, 331.9, 628.3)">p</text><text xml:space="preserve" font-family="Helvetica-Light,Helvetica" font-size="80.0" fill="#FEFFFF" transform="matrix(1.00, 0.00, -0.00, -1.00, 380.8, 628.3)">e</text><text xml:space="preserve" font-family="Helvetica-Light,Helvetica" font-size="80.0" fill="#FEFFFF" transform="matrix(1.00, 0.00, -0.00, -1.00, 425.2, 628.3)">r</text><text xml:space="preserve" font-family="Helvetica-Light,Helvetica" font-size="80.0" fill="#FEFFFF" transform="matrix(1.00, 0.00, -0.00, -1.00, 451.9, 628.3)">a</text><text xml:space="preserve" font-family="Helvetica-Light,Helvetica" font-size="80.0" fill="#FEFFFF" transform="matrix(1.00, 0.00, -0.00, -1.00, 496.4, 628.3)">t</text><text xml:space="preserve" font-family="Helvetica-Light,Helvetica" font-size="80.0" fill="#FEFFFF" transform="matrix(1.00, 0.00, -0.00, -1.00, 518.6, 628.3)">i</text><text xml:space="preserve" font-family="Helvetica-Light,Helvetica" font-size="80.0" fill="#FEFFFF" transform="matrix(1.00, 0.00, -0.00, -1.00, 536.4, 628.3)">o</text><text xml:space="preserve" font-family="Helvetica-Light,Helvetica" font-size="80.0" fill="#FEFFFF" transform="matrix(1.00, 0.00, -0.00, -1.00, 580.8, 628.3)">n</text><text xml:space="preserve" font-family="Helvetica-Light,Helvetica" font-size="80.0" fill="#FEFFFF" transform="matrix(1.00, 0.00, -0.00, -1.00, 625.3, 628.3)"> </text><text xml:space="preserve" font-family="Helvetica-Light,Helvetica" font-size="80.0" fill="#FEFFFF" transform="matrix(1.00, 0.00, -0.00, -1.00, 647.6, 628.3)">F</text><text xml:space="preserve" font-family="Helvetica-Light,Helvetica" font-size="80.0" fill="#FEFFFF" transform="matrix(1.00, 0.00, -0.00, -1.00, 692.0, 628.3)">i</text><text xml:space="preserve" font-family="Helvetica-Light,Helvetica" font-size="80.0" fill="#FEFFFF" transform="matrix(1.00, 0.00, -0.00, -1.00, 709.8, 628.3)">n</text><text xml:space="preserve" font-family="Helvetica-Light,Helvetica" font-size="80.0" fill="#FEFFFF" transform="matrix(1.00, 0.00, -0.00, -1.00, 754.3, 628.3)">a</text><text xml:space="preserve" font-family="Helvetica-Light,Helvetica" font-size="80.0" fill="#FEFFFF" transform="matrix(1.00, 0.00, -0.00, -1.00, 798.8, 628.3)">l</text><text xml:space="preserve" font-family="Helvetica-Light,Helvetica" font-size="80.0" fill="#FEFFFF" transform="matrix(1.00, 0.00, -0.00, -1.00, 816.5, 628.3)">e</text><path d="M 98.1 548.4 L 923.3 548.4 L 923.3 515.4 L 98.1 515.4 Z M 98.1 548.4 " fill="#000000" fill-opacity="0.00"></path><path d="M 98.1 515.4 L 668.2 515.4 L 668.2 482.4 L 98.1 482.4 Z M 98.1 515.4 " fill="#000000" fill-opacity="0.00"></path><path d="M 98.1 482.4 L 143.1 482.4 L 143.1 449.4 L 98.1 449.4 Z M 98.1 482.4 " fill="#000000" fill-opacity="0.00"></path><text xml:space="preserve" font-family="Monaco,Monaco" font-size="25.0" fill="#FEFFFE" transform="matrix(1.00, 0.00, -0.00, -1.00, 98.1, 523.7)">[</text><text xml:space="preserve" font-family="Monaco,Monaco" font-size="25.0" fill="#FEFFFE" transform="matrix(1.00, 0.00, -0.00, -1.00, 113.1, 523.7)">[</text><text xml:space="preserve" font-family="Monaco,Monaco" font-size="25.0" fill="#FEFFFE" transform="matrix(1.00, 0.00, -0.00, -1.00, 128.1, 523.7)">N</text><text xml:space="preserve" font-family="Monaco,Monaco" font-size="25.0" fill="#FEFFFE" transform="matrix(1.00, 0.00, -0.00, -1.00, 143.1, 523.7)">S</text><text xml:space="preserve" font-family="Monaco,Monaco" font-size="25.0" fill="#FEFFFE" transform="matrix(1.00, 0.00, -0.00, -1.00, 158.1, 523.7)">O</text><text xml:space="preserve" font-family="Monaco,Monaco" font-size="25.0" fill="#FEFFFE" transform="matrix(1.00, 0.00, -0.00, -1.00, 173.2, 523.7)">p</text><text xml:space="preserve" font-family="Monaco,Monaco" font-size="25.0" fill="#FEFFFE" transform="matrix(1.00, 0.00, -0.00, -1.00, 188.2, 523.7)">e</text><text xml:space="preserve" font-family="Monaco,Monaco" font-size="25.0" fill="#FEFFFE" transform="matrix(1.00, 0.00, -0.00, -1.00, 203.2, 523.7)">r</text><text xml:space="preserve" font-family="Monaco,Monaco" font-size="25.0" fill="#FEFFFE" transform="matrix(1.00, 0.00, -0.00, -1.00, 218.2, 523.7)">a</text><text xml:space="preserve" font-family="Monaco,Monaco" font-size="25.0" fill="#FEFFFE" transform="matrix(1.00, 0.00, -0.00, -1.00, 233.2, 523.7)">t</text><text xml:space="preserve" font-family="Monaco,Monaco" font-size="25.0" fill="#FEFFFE" transform="matrix(1.00, 0.00, -0.00, -1.00, 248.2, 523.7)">i</text><text xml:space="preserve" font-family="Monaco,Monaco" font-size="25.0" fill="#FEFFFE" transform="matrix(1.00, 0.00, -0.00, -1.00, 263.2, 523.7)">o</text><text xml:space="preserve" font-family="Monaco,Monaco" font-size="25.0" fill="#FEFFFE" transform="matrix(1.00, 0.00, -0.00, -1.00, 278.2, 523.7)">n</text><text xml:space="preserve" font-family="Monaco,Monaco" font-size="25.0" fill="#FEFFFE" transform="matrix(1.00, 0.00, -0.00, -1.00, 293.2, 523.7)">Q</text><text xml:space="preserve" font-family="Monaco,Monaco" font-size="25.0" fill="#FEFFFE" transform="matrix(1.00, 0.00, -0.00, -1.00, 308.2, 523.7)">u</text><text xml:space="preserve" font-family="Monaco,Monaco" font-size="25.0" fill="#FEFFFE" transform="matrix(1.00, 0.00, -0.00, -1.00, 323.2, 523.7)">e</text><text xml:space="preserve" font-family="Monaco,Monaco" font-size="25.0" fill="#FEFFFE" transform="matrix(1.00, 0.00, -0.00, -1.00, 338.2, 523.7)">u</text><text xml:space="preserve" font-family="Monaco,Monaco" font-size="25.0" fill="#FEFFFE" transform="matrix(1.00, 0.00, -0.00, -1.00, 353.2, 523.7)">e</text><text xml:space="preserve" font-family="Monaco,Monaco" font-size="25.0" fill="#FEFFFE" transform="matrix(1.00, 0.00, -0.00, -1.00, 368.2, 523.7)"> </text><text xml:space="preserve" font-family="Monaco,Monaco" font-size="25.0" fill="#FEFFFE" transform="matrix(1.00, 0.00, -0.00, -1.00, 383.2, 523.7)">m</text><text xml:space="preserve" font-family="Monaco,Monaco" font-size="25.0" fill="#FEFFFE" transform="matrix(1.00, 0.00, -0.00, -1.00, 398.2, 523.7)">a</text><text xml:space="preserve" font-family="Monaco,Monaco" font-size="25.0" fill="#FEFFFE" transform="matrix(1.00, 0.00, -0.00, -1.00, 413.2, 523.7)">i</text><text xml:space="preserve" font-family="Monaco,Monaco" font-size="25.0" fill="#FEFFFE" transform="matrix(1.00, 0.00, -0.00, -1.00, 428.2, 523.7)">n</text><text xml:space="preserve" font-family="Monaco,Monaco" font-size="25.0" fill="#FEFFFE" transform="matrix(1.00, 0.00, -0.00, -1.00, 443.2, 523.7)">Q</text><text xml:space="preserve" font-family="Monaco,Monaco" font-size="25.0" fill="#FEFFFE" transform="matrix(1.00, 0.00, -0.00, -1.00, 458.2, 523.7)">u</text><text xml:space="preserve" font-family="Monaco,Monaco" font-size="25.0" fill="#FEFFFE" transform="matrix(1.00, 0.00, -0.00, -1.00, 473.3, 523.7)">e</text><text xml:space="preserve" font-family="Monaco,Monaco" font-size="25.0" fill="#FEFFFE" transform="matrix(1.00, 0.00, -0.00, -1.00, 488.3, 523.7)">u</text><text xml:space="preserve" font-family="Monaco,Monaco" font-size="25.0" fill="#FEFFFE" transform="matrix(1.00, 0.00, -0.00, -1.00, 503.3, 523.7)">e</text><text xml:space="preserve" font-family="Monaco,Monaco" font-size="25.0" fill="#FEFFFE" transform="matrix(1.00, 0.00, -0.00, -1.00, 518.3, 523.7)">]</text><text xml:space="preserve" font-family="Monaco,Monaco" font-size="25.0" fill="#FEFFFE" transform="matrix(1.00, 0.00, -0.00, -1.00, 533.3, 523.7)"> </text><text xml:space="preserve" font-family="Monaco,Monaco" font-size="25.0" fill="#FEFFFE" transform="matrix(1.00, 0.00, -0.00, -1.00, 548.3, 523.7)">a</text><text xml:space="preserve" font-family="Monaco,Monaco" font-size="25.0" fill="#FEFFFE" transform="matrix(1.00, 0.00, -0.00, -1.00, 563.3, 523.7)">d</text><text xml:space="preserve" font-family="Monaco,Monaco" font-size="25.0" fill="#FEFFFE" transform="matrix(1.00, 0.00, -0.00, -1.00, 578.3, 523.7)">d</text><text xml:space="preserve" font-family="Monaco,Monaco" font-size="25.0" fill="#FEFFFE" transform="matrix(1.00, 0.00, -0.00, -1.00, 593.3, 523.7)">O</text><text xml:space="preserve" font-family="Monaco,Monaco" font-size="25.0" fill="#FEFFFE" transform="matrix(1.00, 0.00, -0.00, -1.00, 608.3, 523.7)">p</text><text xml:space="preserve" font-family="Monaco,Monaco" font-size="25.0" fill="#FEFFFE" transform="matrix(1.00, 0.00, -0.00, -1.00, 623.3, 523.7)">e</text><text xml:space="preserve" font-family="Monaco,Monaco" font-size="25.0" fill="#FEFFFE" transform="matrix(1.00, 0.00, -0.00, -1.00, 638.3, 523.7)">r</text><text xml:space="preserve" font-family="Monaco,Monaco" font-size="25.0" fill="#FEFFFE" transform="matrix(1.00, 0.00, -0.00, -1.00, 653.3, 523.7)">a</text><text xml:space="preserve" font-family="Monaco,Monaco" font-size="25.0" fill="#FEFFFE" transform="matrix(1.00, 0.00, -0.00, -1.00, 668.3, 523.7)">t</text><text xml:space="preserve" font-family="Monaco,Monaco" font-size="25.0" fill="#FEFFFE" transform="matrix(1.00, 0.00, -0.00, -1.00, 683.3, 523.7)">i</text><text xml:space="preserve" font-family="Monaco,Monaco" font-size="25.0" fill="#FEFFFE" transform="matrix(1.00, 0.00, -0.00, -1.00, 698.3, 523.7)">o</text><text xml:space="preserve" font-family="Monaco,Monaco" font-size="25.0" fill="#FEFFFE" transform="matrix(1.00, 0.00, -0.00, -1.00, 713.3, 523.7)">n</text><text xml:space="preserve" font-family="Monaco,Monaco" font-size="25.0" fill="#FEFFFE" transform="matrix(1.00, 0.00, -0.00, -1.00, 728.3, 523.7)">W</text><text xml:space="preserve" font-family="Monaco,Monaco" font-size="25.0" fill="#FEFFFE" transform="matrix(1.00, 0.00, -0.00, -1.00, 743.3, 523.7)">i</text><text xml:space="preserve" font-family="Monaco,Monaco" font-size="25.0" fill="#FEFFFE" transform="matrix(1.00, 0.00, -0.00, -1.00, 758.3, 523.7)">t</text><text xml:space="preserve" font-family="Monaco,Monaco" font-size="25.0" fill="#FEFFFE" transform="matrix(1.00, 0.00, -0.00, -1.00, 773.3, 523.7)">h</text><text xml:space="preserve" font-family="Monaco,Monaco" font-size="25.0" fill="#FEFFFE" transform="matrix(1.00, 0.00, -0.00, -1.00, 788.4, 523.7)">B</text><text xml:space="preserve" font-family="Monaco,Monaco" font-size="25.0" fill="#FEFFFE" transform="matrix(1.00, 0.00, -0.00, -1.00, 803.4, 523.7)">l</text><text xml:space="preserve" font-family="Monaco,Monaco" font-size="25.0" fill="#FEFFFE" transform="matrix(1.00, 0.00, -0.00, -1.00, 818.4, 523.7)">o</text><text xml:space="preserve" font-family="Monaco,Monaco" font-size="25.0" fill="#FEFFFE" transform="matrix(1.00, 0.00, -0.00, -1.00, 833.4, 523.7)">c</text><text xml:space="preserve" font-family="Monaco,Monaco" font-size="25.0" fill="#FEFFFE" transform="matrix(1.00, 0.00, -0.00, -1.00, 848.4, 523.7)">k</text><text xml:space="preserve" font-family="Monaco,Monaco" font-size="25.0" fill="#FEFFFE" transform="matrix(1.00, 0.00, -0.00, -1.00, 863.4, 523.7)">:</text><text xml:space="preserve" font-family="Monaco,Monaco" font-size="25.0" fill="#FEFFFE" transform="matrix(1.00, 0.00, -0.00, -1.00, 878.4, 523.7)">^</text><text xml:space="preserve" font-family="Monaco,Monaco" font-size="25.0" fill="#FEFFFE" transform="matrix(1.00, 0.00, -0.00, -1.00, 893.4, 523.7)">{</text><text xml:space="preserve" font-family="Monaco,Monaco" font-size="25.0" fill="#FEFFFE" transform="matrix(1.00, 0.00, -0.00, -1.00, 98.1, 490.7)"> </text><text xml:space="preserve" font-family="Monaco,Monaco" font-size="25.0" fill="#FEFFFE" transform="matrix(1.00, 0.00, -0.00, -1.00, 113.1, 490.7)"> </text><text xml:space="preserve" font-family="Monaco,Monaco" font-size="25.0" fill="#FEFFFE" transform="matrix(1.00, 0.00, -0.00, -1.00, 128.1, 490.7)"> </text><text xml:space="preserve" font-family="Monaco,Monaco" font-size="25.0" fill="#FEFFFE" transform="matrix(1.00, 0.00, -0.00, -1.00, 143.1, 490.7)">/</text><text xml:space="preserve" font-family="Monaco,Monaco" font-size="25.0" fill="#FEFFFE" transform="matrix(1.00, 0.00, -0.00, -1.00, 158.1, 490.7)">/</text><text xml:space="preserve" font-family="Monaco,Monaco" font-size="25.0" fill="#FEFFFE" transform="matrix(1.00, 0.00, -0.00, -1.00, 173.2, 490.7)"> </text><text xml:space="preserve" font-family="Monaco,Monaco" font-size="25.0" fill="#FEFFFE" transform="matrix(1.00, 0.00, -0.00, -1.00, 188.2, 490.7)">U</text><text xml:space="preserve" font-family="Monaco,Monaco" font-size="25.0" fill="#FEFFFE" transform="matrix(1.00, 0.00, -0.00, -1.00, 203.2, 490.7)">I</text><text xml:space="preserve" font-family="Monaco,Monaco" font-size="25.0" fill="#FEFFFE" transform="matrix(1.00, 0.00, -0.00, -1.00, 218.2, 490.7)"> </text><text xml:space="preserve" font-family="Monaco,Monaco" font-size="25.0" fill="#FEFFFE" transform="matrix(1.00, 0.00, -0.00, -1.00, 233.2, 490.7)">s</text><text xml:space="preserve" font-family="Monaco,Monaco" font-size="25.0" fill="#FEFFFE" transform="matrix(1.00, 0.00, -0.00, -1.00, 248.2, 490.7)">t</text><text xml:space="preserve" font-family="Monaco,Monaco" font-size="25.0" fill="#FEFFFE" transform="matrix(1.00, 0.00, -0.00, -1.00, 263.2, 490.7)">u</text><text xml:space="preserve" font-family="Monaco,Monaco" font-size="25.0" fill="#FEFFFE" transform="matrix(1.00, 0.00, -0.00, -1.00, 278.2, 490.7)">f</text><text xml:space="preserve" font-family="Monaco,Monaco" font-size="25.0" fill="#FEFFFE" transform="matrix(1.00, 0.00, -0.00, -1.00, 293.2, 490.7)">f</text><text xml:space="preserve" font-family="Monaco,Monaco" font-size="25.0" fill="#FEFFFE" transform="matrix(1.00, 0.00, -0.00, -1.00, 308.2, 490.7)"> </text><text xml:space="preserve" font-family="Monaco,Monaco" font-size="25.0" fill="#FEFFFE" transform="matrix(1.00, 0.00, -0.00, -1.00, 323.2, 490.7)">u</text><text xml:space="preserve" font-family="Monaco,Monaco" font-size="25.0" fill="#FEFFFE" transform="matrix(1.00, 0.00, -0.00, -1.00, 338.2, 490.7)">s</text><text xml:space="preserve" font-family="Monaco,Monaco" font-size="25.0" fill="#FEFFFE" transform="matrix(1.00, 0.00, -0.00, -1.00, 353.2, 490.7)">u</text><text xml:space="preserve" font-family="Monaco,Monaco" font-size="25.0" fill="#FEFFFE" transform="matrix(1.00, 0.00, -0.00, -1.00, 368.2, 490.7)">a</text><text xml:space="preserve" font-family="Monaco,Monaco" font-size="25.0" fill="#FEFFFE" transform="matrix(1.00, 0.00, -0.00, -1.00, 383.2, 490.7)">l</text><text xml:space="preserve" font-family="Monaco,Monaco" font-size="25.0" fill="#FEFFFE" transform="matrix(1.00, 0.00, -0.00, -1.00, 398.2, 490.7)">l</text><text xml:space="preserve" font-family="Monaco,Monaco" font-size="25.0" fill="#FEFFFE" transform="matrix(1.00, 0.00, -0.00, -1.00, 413.2, 490.7)">y</text><text xml:space="preserve" font-family="Monaco,Monaco" font-size="25.0" fill="#FEFFFE" transform="matrix(1.00, 0.00, -0.00, -1.00, 428.2, 490.7)"> </text><text xml:space="preserve" font-family="Monaco,Monaco" font-size="25.0" fill="#FEFFFE" transform="matrix(1.00, 0.00, -0.00, -1.00, 443.2, 490.7)">g</text><text xml:space="preserve" font-family="Monaco,Monaco" font-size="25.0" fill="#FEFFFE" transform="matrix(1.00, 0.00, -0.00, -1.00, 458.2, 490.7)">o</text><text xml:space="preserve" font-family="Monaco,Monaco" font-size="25.0" fill="#FEFFFE" transform="matrix(1.00, 0.00, -0.00, -1.00, 473.3, 490.7)">e</text><text xml:space="preserve" font-family="Monaco,Monaco" font-size="25.0" fill="#FEFFFE" transform="matrix(1.00, 0.00, -0.00, -1.00, 488.3, 490.7)">s</text><text xml:space="preserve" font-family="Monaco,Monaco" font-size="25.0" fill="#FEFFFE" transform="matrix(1.00, 0.00, -0.00, -1.00, 503.3, 490.7)"> </text><text xml:space="preserve" font-family="Monaco,Monaco" font-size="25.0" fill="#FEFFFE" transform="matrix(1.00, 0.00, -0.00, -1.00, 518.3, 490.7)">u</text><text xml:space="preserve" font-family="Monaco,Monaco" font-size="25.0" fill="#FEFFFE" transform="matrix(1.00, 0.00, -0.00, -1.00, 533.3, 490.7)">p</text><text xml:space="preserve" font-family="Monaco,Monaco" font-size="25.0" fill="#FEFFFE" transform="matrix(1.00, 0.00, -0.00, -1.00, 548.3, 490.7)"> </text><text xml:space="preserve" font-family="Monaco,Monaco" font-size="25.0" fill="#FEFFFE" transform="matrix(1.00, 0.00, -0.00, -1.00, 563.3, 490.7)">i</text><text xml:space="preserve" font-family="Monaco,Monaco" font-size="25.0" fill="#FEFFFE" transform="matrix(1.00, 0.00, -0.00, -1.00, 578.3, 490.7)">n</text><text xml:space="preserve" font-family="Monaco,Monaco" font-size="25.0" fill="#FEFFFE" transform="matrix(1.00, 0.00, -0.00, -1.00, 593.3, 490.7)"> </text><text xml:space="preserve" font-family="Monaco,Monaco" font-size="25.0" fill="#FEFFFE" transform="matrix(1.00, 0.00, -0.00, -1.00, 608.3, 490.7)">h</text><text xml:space="preserve" font-family="Monaco,Monaco" font-size="25.0" fill="#FEFFFE" transform="matrix(1.00, 0.00, -0.00, -1.00, 623.3, 490.7)">u</text><text xml:space="preserve" font-family="Monaco,Monaco" font-size="25.0" fill="#FEFFFE" transform="matrix(1.00, 0.00, -0.00, -1.00, 638.3, 490.7)">r</text><text xml:space="preserve" font-family="Monaco,Monaco" font-size="25.0" fill="#FEFFFE" transform="matrix(1.00, 0.00, -0.00, -1.00, 653.3, 490.7)">r</text><text xml:space="preserve" font-family="Monaco,Monaco" font-size="25.0" fill="#FEFFFE" transform="matrix(1.00, 0.00, -0.00, -1.00, 98.1, 457.7)">}</text><text xml:space="preserve" font-family="Monaco,Monaco" font-size="25.0" fill="#FEFFFE" transform="matrix(1.00, 0.00, -0.00, -1.00, 113.1, 457.7)">]</text><text xml:space="preserve" font-family="Monaco,Monaco" font-size="25.0" fill="#FEFFFE" transform="matrix(1.00, 0.00, -0.00, -1.00, 128.1, 457.7)">;</text><text xml:space="preserve" font-family="Monaco,Monaco" font-size="25.0" fill="#FEFFFE" transform="matrix(1.00, 0.00, -0.00, -1.00, 143.1, 457.7)"> </text></g></svg>