<?xml version="1.0" encoding="UTF-8" standalone="no"?><svg xmlns="http://www.w3.org/2000/svg" xmlns:xlink="http://www.w3.org/1999/xlink" clip-rule="evenodd" stroke-miterlimit="10" viewBox="0 0 1024 768"><desc>SVG generated by Keynote</desc><defs></defs><g transform="matrix(1.00, 0.00, -0.00, -1.00, 0.0, 768.0)"><g><clipPath id="clip0x6000016a9360"><path d="M 0.0 768.0 L 1024.0 768.0 L 1024.0 0.0 L 0.0 0.0 Z M 0.0 768.0 "></path></clipPath><g clip-path="url(#clip0x6000016a9360)"><image xlink:href="../../D1633A7A-1E45-48FF-BA06-56002168097B/assets/4E131E180F71435CE7831D195B770FC0.jpeg" width="2048.00" height="1536.00" transform="matrix(0.50, 0.00, -0.00, -0.50, 0.0, 768.0)"></image></g></g><text xml:space="preserve" font-family="Helvetica-Light,Helvetica" font-size="80.0" fill="#FEFFFF" transform="matrix(1.00, 0.00, -0.00, -1.00, 114.2, 628.3)">N</text><text xml:space="preserve" font-family="Helvetica-Light,Helvetica" font-size="80.0" fill="#FEFFFF" transform="matrix(1.00, 0.00, -0.00, -1.00, 171.9, 628.3)">S</text><text xml:space="preserve" font-family="Helvetica-Light,Helvetica" font-size="80.0" fill="#FEFFFF" transform="matrix(1.00, 0.00, -0.00, -1.00, 220.8, 628.3)">O</text><text xml:space="preserve" font-family="Helvetica-Light,Helvetica" font-size="80.0" fill="#FEFFFF" transform="matrix(1.00, 0.00, -0.00, -1.00, 283.0, 628.3)">p</text><text xml:space="preserve" font-family="Helvetica-Light,Helvetica" font-size="80.0" fill="#FEFFFF" transform="matrix(1.00, 0.00, -0.00, -1.00, 331.9, 628.3)">e</text><text xml:space="preserve" font-family="Helvetica-Light,Helvetica" font-size="80.0" fill="#FEFFFF" transform="matrix(1.00, 0.00, -0.00, -1.00, 376.4, 628.3)">r</text><text xml:space="preserve" font-family="Helvetica-Light,Helvetica" font-size="80.0" fill="#FEFFFF" transform="matrix(1.00, 0.00, -0.00, -1.00, 403.0, 628.3)">a</text><text xml:space="preserve" font-family="Helvetica-Light,Helvetica" font-size="80.0" fill="#FEFFFF" transform="matrix(1.00, 0.00, -0.00, -1.00, 447.5, 628.3)">t</text><text xml:space="preserve" font-family="Helvetica-Light,Helvetica" font-size="80.0" fill="#FEFFFF" transform="matrix(1.00, 0.00, -0.00, -1.00, 469.8, 628.3)">i</text><text xml:space="preserve" font-family="Helvetica-Light,Helvetica" font-size="80.0" fill="#FEFFFF" transform="matrix(1.00, 0.00, -0.00, -1.00, 487.5, 628.3)">o</text><text xml:space="preserve" font-family="Helvetica-Light,Helvetica" font-size="80.0" fill="#FEFFFF" transform="matrix(1.00, 0.00, -0.00, -1.00, 532.0, 628.3)">n</text><text xml:space="preserve" font-family="Helvetica-Light,Helvetica" font-size="80.0" fill="#FEFFFF" transform="matrix(1.00, 0.00, -0.00, -1.00, 576.5, 628.3)"> </text><text xml:space="preserve" font-family="Helvetica-Light,Helvetica" font-size="80.0" fill="#FEFFFF" transform="matrix(1.00, 0.00, -0.00, -1.00, 598.7, 628.3)">E</text><text xml:space="preserve" font-family="Helvetica-Light,Helvetica" font-size="80.0" fill="#FEFFFF" transform="matrix(1.00, 0.00, -0.00, -1.00, 647.6, 628.3)">x</text><text xml:space="preserve" font-family="Helvetica-Light,Helvetica" font-size="80.0" fill="#FEFFFF" transform="matrix(1.00, 0.00, -0.00, -1.00, 687.6, 628.3)">a</text><text xml:space="preserve" font-family="Helvetica-Light,Helvetica" font-size="80.0" fill="#FEFFFF" transform="matrix(1.00, 0.00, -0.00, -1.00, 732.1, 628.3)">m</text><text xml:space="preserve" font-family="Helvetica-Light,Helvetica" font-size="80.0" fill="#FEFFFF" transform="matrix(1.00, 0.00, -0.00, -1.00, 798.7, 628.3)">p</text><text xml:space="preserve" font-family="Helvetica-Light,Helvetica" font-size="80.0" fill="#FEFFFF" transform="matrix(1.00, 0.00, -0.00, -1.00, 847.6, 628.3)">l</text><text xml:space="preserve" font-family="Helvetica-Light,Helvetica" font-size="80.0" fill="#FEFFFF" transform="matrix(1.00, 0.00, -0.00, -1.00, 865.4, 628.3)">e</text><text xml:space="preserve" font-family="Courier-Bold,Courier" font-weight="bold" font-size="26.0" fill="#74DA3B" transform="matrix(1.00, 0.00, -0.00, -1.00, 118.1, 536.4)">C</text><text xml:space="preserve" font-family="Courier-Bold,Courier" font-weight="bold" font-size="26.0" fill="#74DA3B" transform="matrix(1.00, 0.00, -0.00, -1.00, 133.7, 536.4)">r</text><text xml:space="preserve" font-family="Courier-Bold,Courier" font-weight="bold" font-size="26.0" fill="#74DA3B" transform="matrix(1.00, 0.00, -0.00, -1.00, 149.3, 536.4)">a</text><text xml:space="preserve" font-family="Courier-Bold,Courier" font-weight="bold" font-size="26.0" fill="#74DA3B" transform="matrix(1.00, 0.00, -0.00, -1.00, 164.9, 536.4)">z</text><text xml:space="preserve" font-family="Courier-Bold,Courier" font-weight="bold" font-size="26.0" fill="#74DA3B" transform="matrix(1.00, 0.00, -0.00, -1.00, 180.6, 536.4)">y</text><text xml:space="preserve" font-family="Courier-Bold,Courier" font-weight="bold" font-size="26.0" fill="#74DA3B" transform="matrix(1.00, 0.00, -0.00, -1.00, 196.2, 536.4)">O</text><text xml:space="preserve" font-family="Courier-Bold,Courier" font-weight="bold" font-size="26.0" fill="#74DA3B" transform="matrix(1.00, 0.00, -0.00, -1.00, 211.8, 536.4)">p</text><text xml:space="preserve" font-family="Courier-Bold,Courier" font-weight="bold" font-size="26.0" fill="#74DA3B" transform="matrix(1.00, 0.00, -0.00, -1.00, 227.4, 536.4)">e</text><text xml:space="preserve" font-family="Courier-Bold,Courier" font-weight="bold" font-size="26.0" fill="#74DA3B" transform="matrix(1.00, 0.00, -0.00, -1.00, 243.0, 536.4)">r</text><text xml:space="preserve" font-family="Courier-Bold,Courier" font-weight="bold" font-size="26.0" fill="#74DA3B" transform="matrix(1.00, 0.00, -0.00, -1.00, 258.6, 536.4)">a</text><text xml:space="preserve" font-family="Courier-Bold,Courier" font-weight="bold" font-size="26.0" fill="#74DA3B" transform="matrix(1.00, 0.00, -0.00, -1.00, 274.2, 536.4)">t</text><text xml:space="preserve" font-family="Courier-Bold,Courier" font-weight="bold" font-size="26.0" fill="#74DA3B" transform="matrix(1.00, 0.00, -0.00, -1.00, 289.8, 536.4)">i</text><text xml:space="preserve" font-family="Courier-Bold,Courier" font-weight="bold" font-size="26.0" fill="#74DA3B" transform="matrix(1.00, 0.00, -0.00, -1.00, 305.4, 536.4)">o</text><text xml:space="preserve" font-family="Courier-Bold,Courier" font-weight="bold" font-size="26.0" fill="#74DA3B" transform="matrix(1.00, 0.00, -0.00, -1.00, 321.0, 536.4)">n</text><text xml:space="preserve" font-family="Courier-Bold,Courier" font-weight="bold" font-size="26.0" fill="#74DA3B" transform="matrix(1.00, 0.00, -0.00, -1.00, 336.6, 536.4)">.</text><text xml:space="preserve" font-family="Courier-Bold,Courier" font-weight="bold" font-size="26.0" fill="#74DA3B" transform="matrix(1.00, 0.00, -0.00, -1.00, 352.2, 536.4)">h</text><text xml:space="preserve" font-family="Courier-Bold,Courier" font-weight="bold" font-size="26.0" fill="#FEFFFE" transform="matrix(1.00, 0.00, -0.00, -1.00, 367.8, 536.4)"> </text><text xml:space="preserve" font-family="Courier,Courier" font-size="26.0" fill="#FEFFFE" transform="matrix(1.00, 0.00, -0.00, -1.00, 118.1, 505.4)"> </text><text xml:space="preserve" font-family="Courier,Courier" font-size="26.0" fill="#FEFFFE" transform="matrix(1.00, 0.00, -0.00, -1.00, 118.1, 474.4)">#</text><text xml:space="preserve" font-family="Courier,Courier" font-size="26.0" fill="#FEFFFE" transform="matrix(1.00, 0.00, -0.00, -1.00, 133.7, 474.4)">i</text><text xml:space="preserve" font-family="Courier,Courier" font-size="26.0" fill="#FEFFFE" transform="matrix(1.00, 0.00, -0.00, -1.00, 149.3, 474.4)">m</text><text xml:space="preserve" font-family="Courier,Courier" font-size="26.0" fill="#FEFFFE" transform="matrix(1.00, 0.00, -0.00, -1.00, 164.9, 474.4)">p</text><text xml:space="preserve" font-family="Courier,Courier" font-size="26.0" fill="#FEFFFE" transform="matrix(1.00, 0.00, -0.00, -1.00, 180.6, 474.4)">o</text><text xml:space="preserve" font-family="Courier,Courier" font-size="26.0" fill="#FEFFFE" transform="matrix(1.00, 0.00, -0.00, -1.00, 196.2, 474.4)">r</text><text xml:space="preserve" font-family="Courier,Courier" font-size="26.0" fill="#FEFFFE" transform="matrix(1.00, 0.00, -0.00, -1.00, 211.8, 474.4)">t</text><text xml:space="preserve" font-family="Courier,Courier" font-size="26.0" fill="#FEFFFE" transform="matrix(1.00, 0.00, -0.00, -1.00, 227.4, 474.4)"> </text><text xml:space="preserve" font-family="Courier,Courier" font-size="26.0" fill="#FEFFFE" transform="matrix(1.00, 0.00, -0.00, -1.00, 243.0, 474.4)">&lt;</text><text xml:space="preserve" font-family="Courier,Courier" font-size="26.0" fill="#FEFFFE" transform="matrix(1.00, 0.00, -0.00, -1.00, 258.6, 474.4)">C</text><text xml:space="preserve" font-family="Courier,Courier" font-size="26.0" fill="#FEFFFE" transform="matrix(1.00, 0.00, -0.00, -1.00, 274.2, 474.4)">o</text><text xml:space="preserve" font-family="Courier,Courier" font-size="26.0" fill="#FEFFFE" transform="matrix(1.00, 0.00, -0.00, -1.00, 289.8, 474.4)">c</text><text xml:space="preserve" font-family="Courier,Courier" font-size="26.0" fill="#FEFFFE" transform="matrix(1.00, 0.00, -0.00, -1.00, 305.4, 474.4)">o</text><text xml:space="preserve" font-family="Courier,Courier" font-size="26.0" fill="#FEFFFE" transform="matrix(1.00, 0.00, -0.00, -1.00, 321.0, 474.4)">a</text><text xml:space="preserve" font-family="Courier,Courier" font-size="26.0" fill="#FEFFFE" transform="matrix(1.00, 0.00, -0.00, -1.00, 336.6, 474.4)">/</text><text xml:space="preserve" font-family="Courier,Courier" font-size="26.0" fill="#FEFFFE" transform="matrix(1.00, 0.00, -0.00, -1.00, 352.2, 474.4)">C</text><text xml:space="preserve" font-family="Courier,Courier" font-size="26.0" fill="#FEFFFE" transform="matrix(1.00, 0.00, -0.00, -1.00, 367.8, 474.4)">o</text><text xml:space="preserve" font-family="Courier,Courier" font-size="26.0" fill="#FEFFFE" transform="matrix(1.00, 0.00, -0.00, -1.00, 383.4, 474.4)">c</text><text xml:space="preserve" font-family="Courier,Courier" font-size="26.0" fill="#FEFFFE" transform="matrix(1.00, 0.00, -0.00, -1.00, 399.0, 474.4)">o</text><text xml:space="preserve" font-family="Courier,Courier" font-size="26.0" fill="#FEFFFE" transform="matrix(1.00, 0.00, -0.00, -1.00, 414.6, 474.4)">a</text><text xml:space="preserve" font-family="Courier,Courier" font-size="26.0" fill="#FEFFFE" transform="matrix(1.00, 0.00, -0.00, -1.00, 430.2, 474.4)">.</text><text xml:space="preserve" font-family="Courier,Courier" font-size="26.0" fill="#FEFFFE" transform="matrix(1.00, 0.00, -0.00, -1.00, 445.8, 474.4)">h</text><text xml:space="preserve" font-family="Courier,Courier" font-size="26.0" fill="#FEFFFE" transform="matrix(1.00, 0.00, -0.00, -1.00, 461.4, 474.4)">&gt;</text><text xml:space="preserve" font-family="Courier,Courier" font-size="26.0" fill="#FEFFFE" transform="matrix(1.00, 0.00, -0.00, -1.00, 118.1, 412.4)">@</text><text xml:space="preserve" font-family="Courier,Courier" font-size="26.0" fill="#FEFFFE" transform="matrix(1.00, 0.00, -0.00, -1.00, 133.7, 412.4)">i</text><text xml:space="preserve" font-family="Courier,Courier" font-size="26.0" fill="#FEFFFE" transform="matrix(1.00, 0.00, -0.00, -1.00, 149.3, 412.4)">n</text><text xml:space="preserve" font-family="Courier,Courier" font-size="26.0" fill="#FEFFFE" transform="matrix(1.00, 0.00, -0.00, -1.00, 164.9, 412.4)">t</text><text xml:space="preserve" font-family="Courier,Courier" font-size="26.0" fill="#FEFFFE" transform="matrix(1.00, 0.00, -0.00, -1.00, 180.6, 412.4)">e</text><text xml:space="preserve" font-family="Courier,Courier" font-size="26.0" fill="#FEFFFE" transform="matrix(1.00, 0.00, -0.00, -1.00, 196.2, 412.4)">r</text><text xml:space="preserve" font-family="Courier,Courier" font-size="26.0" fill="#FEFFFE" transform="matrix(1.00, 0.00, -0.00, -1.00, 211.8, 412.4)">f</text><text xml:space="preserve" font-family="Courier,Courier" font-size="26.0" fill="#FEFFFE" transform="matrix(1.00, 0.00, -0.00, -1.00, 227.4, 412.4)">a</text><text xml:space="preserve" font-family="Courier,Courier" font-size="26.0" fill="#FEFFFE" transform="matrix(1.00, 0.00, -0.00, -1.00, 243.0, 412.4)">c</text><text xml:space="preserve" font-family="Courier,Courier" font-size="26.0" fill="#FEFFFE" transform="matrix(1.00, 0.00, -0.00, -1.00, 258.6, 412.4)">e</text><text xml:space="preserve" font-family="Courier,Courier" font-size="26.0" fill="#FEFFFE" transform="matrix(1.00, 0.00, -0.00, -1.00, 274.2, 412.4)"> </text><text xml:space="preserve" font-family="Courier,Courier" font-size="26.0" fill="#FEFFFE" transform="matrix(1.00, 0.00, -0.00, -1.00, 289.8, 412.4)">C</text><text xml:space="preserve" font-family="Courier,Courier" font-size="26.0" fill="#FEFFFE" transform="matrix(1.00, 0.00, -0.00, -1.00, 305.4, 412.4)">r</text><text xml:space="preserve" font-family="Courier,Courier" font-size="26.0" fill="#FEFFFE" transform="matrix(1.00, 0.00, -0.00, -1.00, 321.0, 412.4)">a</text><text xml:space="preserve" font-family="Courier,Courier" font-size="26.0" fill="#FEFFFE" transform="matrix(1.00, 0.00, -0.00, -1.00, 336.6, 412.4)">z</text><text xml:space="preserve" font-family="Courier,Courier" font-size="26.0" fill="#FEFFFE" transform="matrix(1.00, 0.00, -0.00, -1.00, 352.2, 412.4)">y</text><text xml:space="preserve" font-family="Courier,Courier" font-size="26.0" fill="#FEFFFE" transform="matrix(1.00, 0.00, -0.00, -1.00, 367.8, 412.4)">O</text><text xml:space="preserve" font-family="Courier,Courier" font-size="26.0" fill="#FEFFFE" transform="matrix(1.00, 0.00, -0.00, -1.00, 383.4, 412.4)">p</text><text xml:space="preserve" font-family="Courier,Courier" font-size="26.0" fill="#FEFFFE" transform="matrix(1.00, 0.00, -0.00, -1.00, 399.0, 412.4)">e</text><text xml:space="preserve" font-family="Courier,Courier" font-size="26.0" fill="#FEFFFE" transform="matrix(1.00, 0.00, -0.00, -1.00, 414.6, 412.4)">r</text><text xml:space="preserve" font-family="Courier,Courier" font-size="26.0" fill="#FEFFFE" transform="matrix(1.00, 0.00, -0.00, -1.00, 430.2, 412.4)">a</text><text xml:space="preserve" font-family="Courier,Courier" font-size="26.0" fill="#FEFFFE" transform="matrix(1.00, 0.00, -0.00, -1.00, 445.8, 412.4)">t</text><text xml:space="preserve" font-family="Courier,Courier" font-size="26.0" fill="#FEFFFE" transform="matrix(1.00, 0.00, -0.00, -1.00, 461.4, 412.4)">i</text><text xml:space="preserve" font-family="Courier,Courier" font-size="26.0" fill="#FEFFFE" transform="matrix(1.00, 0.00, -0.00, -1.00, 477.0, 412.4)">o</text><text xml:space="preserve" font-family="Courier,Courier" font-size="26.0" fill="#FEFFFE" transform="matrix(1.00, 0.00, -0.00, -1.00, 492.6, 412.4)">n</text><text xml:space="preserve" font-family="Courier,Courier" font-size="26.0" fill="#FEFFFE" transform="matrix(1.00, 0.00, -0.00, -1.00, 508.2, 412.4)"> </text><text xml:space="preserve" font-family="Courier,Courier" font-size="26.0" fill="#FEFFFE" transform="matrix(1.00, 0.00, -0.00, -1.00, 523.8, 412.4)">:</text><text xml:space="preserve" font-family="Courier,Courier" font-size="26.0" fill="#FEFFFE" transform="matrix(1.00, 0.00, -0.00, -1.00, 539.4, 412.4)"> </text><text xml:space="preserve" font-family="Courier,Courier" font-size="26.0" fill="#FEFFFE" transform="matrix(1.00, 0.00, -0.00, -1.00, 555.0, 412.4)">N</text><text xml:space="preserve" font-family="Courier,Courier" font-size="26.0" fill="#FEFFFE" transform="matrix(1.00, 0.00, -0.00, -1.00, 570.6, 412.4)">S</text><text xml:space="preserve" font-family="Courier,Courier" font-size="26.0" fill="#FEFFFE" transform="matrix(1.00, 0.00, -0.00, -1.00, 586.2, 412.4)">O</text><text xml:space="preserve" font-family="Courier,Courier" font-size="26.0" fill="#FEFFFE" transform="matrix(1.00, 0.00, -0.00, -1.00, 601.9, 412.4)">p</text><text xml:space="preserve" font-family="Courier,Courier" font-size="26.0" fill="#FEFFFE" transform="matrix(1.00, 0.00, -0.00, -1.00, 617.5, 412.4)">e</text><text xml:space="preserve" font-family="Courier,Courier" font-size="26.0" fill="#FEFFFE" transform="matrix(1.00, 0.00, -0.00, -1.00, 633.1, 412.4)">r</text><text xml:space="preserve" font-family="Courier,Courier" font-size="26.0" fill="#FEFFFE" transform="matrix(1.00, 0.00, -0.00, -1.00, 648.7, 412.4)">a</text><text xml:space="preserve" font-family="Courier,Courier" font-size="26.0" fill="#FEFFFE" transform="matrix(1.00, 0.00, -0.00, -1.00, 664.3, 412.4)">t</text><text xml:space="preserve" font-family="Courier,Courier" font-size="26.0" fill="#FEFFFE" transform="matrix(1.00, 0.00, -0.00, -1.00, 679.9, 412.4)">i</text><text xml:space="preserve" font-family="Courier,Courier" font-size="26.0" fill="#FEFFFE" transform="matrix(1.00, 0.00, -0.00, -1.00, 695.5, 412.4)">o</text><text xml:space="preserve" font-family="Courier,Courier" font-size="26.0" fill="#FEFFFE" transform="matrix(1.00, 0.00, -0.00, -1.00, 711.1, 412.4)">n</text><text xml:space="preserve" font-family="Courier,Courier" font-size="26.0" fill="#FEFFFE" transform="matrix(1.00, 0.00, -0.00, -1.00, 118.1, 350.4)">-</text><text xml:space="preserve" font-family="Courier,Courier" font-size="26.0" fill="#FEFFFE" transform="matrix(1.00, 0.00, -0.00, -1.00, 133.7, 350.4)"> </text><text xml:space="preserve" font-family="Courier,Courier" font-size="26.0" fill="#FEFFFE" transform="matrix(1.00, 0.00, -0.00, -1.00, 149.3, 350.4)">(</text><text xml:space="preserve" font-family="Courier,Courier" font-size="26.0" fill="#FEFFFE" transform="matrix(1.00, 0.00, -0.00, -1.00, 164.9, 350.4)">i</text><text xml:space="preserve" font-family="Courier,Courier" font-size="26.0" fill="#FEFFFE" transform="matrix(1.00, 0.00, -0.00, -1.00, 180.6, 350.4)">d</text><text xml:space="preserve" font-family="Courier,Courier" font-size="26.0" fill="#FEFFFE" transform="matrix(1.00, 0.00, -0.00, -1.00, 196.2, 350.4)">)</text><text xml:space="preserve" font-family="Courier,Courier" font-size="26.0" fill="#FEFFFE" transform="matrix(1.00, 0.00, -0.00, -1.00, 211.8, 350.4)">i</text><text xml:space="preserve" font-family="Courier,Courier" font-size="26.0" fill="#FEFFFE" transform="matrix(1.00, 0.00, -0.00, -1.00, 227.4, 350.4)">n</text><text xml:space="preserve" font-family="Courier,Courier" font-size="26.0" fill="#FEFFFE" transform="matrix(1.00, 0.00, -0.00, -1.00, 243.0, 350.4)">i</text><text xml:space="preserve" font-family="Courier,Courier" font-size="26.0" fill="#FEFFFE" transform="matrix(1.00, 0.00, -0.00, -1.00, 258.6, 350.4)">t</text><text xml:space="preserve" font-family="Courier,Courier" font-size="26.0" fill="#FEFFFE" transform="matrix(1.00, 0.00, -0.00, -1.00, 274.2, 350.4)">W</text><text xml:space="preserve" font-family="Courier,Courier" font-size="26.0" fill="#FEFFFE" transform="matrix(1.00, 0.00, -0.00, -1.00, 289.8, 350.4)">i</text><text xml:space="preserve" font-family="Courier,Courier" font-size="26.0" fill="#FEFFFE" transform="matrix(1.00, 0.00, -0.00, -1.00, 305.4, 350.4)">t</text><text xml:space="preserve" font-family="Courier,Courier" font-size="26.0" fill="#FEFFFE" transform="matrix(1.00, 0.00, -0.00, -1.00, 321.0, 350.4)">h</text><text xml:space="preserve" font-family="Courier,Courier" font-size="26.0" fill="#FEFFFE" transform="matrix(1.00, 0.00, -0.00, -1.00, 336.6, 350.4)">M</text><text xml:space="preserve" font-family="Courier,Courier" font-size="26.0" fill="#FEFFFE" transform="matrix(1.00, 0.00, -0.00, -1.00, 352.2, 350.4)">e</text><text xml:space="preserve" font-family="Courier,Courier" font-size="26.0" fill="#FEFFFE" transform="matrix(1.00, 0.00, -0.00, -1.00, 367.8, 350.4)">s</text><text xml:space="preserve" font-family="Courier,Courier" font-size="26.0" fill="#FEFFFE" transform="matrix(1.00, 0.00, -0.00, -1.00, 383.4, 350.4)">s</text><text xml:space="preserve" font-family="Courier,Courier" font-size="26.0" fill="#FEFFFE" transform="matrix(1.00, 0.00, -0.00, -1.00, 399.0, 350.4)">a</text><text xml:space="preserve" font-family="Courier,Courier" font-size="26.0" fill="#FEFFFE" transform="matrix(1.00, 0.00, -0.00, -1.00, 414.6, 350.4)">g</text><text xml:space="preserve" font-family="Courier,Courier" font-size="26.0" fill="#FEFFFE" transform="matrix(1.00, 0.00, -0.00, -1.00, 430.2, 350.4)">e</text><text xml:space="preserve" font-family="Courier,Courier" font-size="26.0" fill="#FEFFFE" transform="matrix(1.00, 0.00, -0.00, -1.00, 445.8, 350.4)">:</text><text xml:space="preserve" font-family="Courier,Courier" font-size="26.0" fill="#FEFFFE" transform="matrix(1.00, 0.00, -0.00, -1.00, 461.4, 350.4)">(</text><text xml:space="preserve" font-family="Courier,Courier" font-size="26.0" fill="#FEFFFE" transform="matrix(1.00, 0.00, -0.00, -1.00, 477.1, 350.4)">N</text><text xml:space="preserve" font-family="Courier,Courier" font-size="26.0" fill="#FEFFFE" transform="matrix(1.00, 0.00, -0.00, -1.00, 492.7, 350.4)">S</text><text xml:space="preserve" font-family="Courier,Courier" font-size="26.0" fill="#FEFFFE" transform="matrix(1.00, 0.00, -0.00, -1.00, 508.3, 350.4)">S</text><text xml:space="preserve" font-family="Courier,Courier" font-size="26.0" fill="#FEFFFE" transform="matrix(1.00, 0.00, -0.00, -1.00, 523.9, 350.4)">t</text><text xml:space="preserve" font-family="Courier,Courier" font-size="26.0" fill="#FEFFFE" transform="matrix(1.00, 0.00, -0.00, -1.00, 539.5, 350.4)">r</text><text xml:space="preserve" font-family="Courier,Courier" font-size="26.0" fill="#FEFFFE" transform="matrix(1.00, 0.00, -0.00, -1.00, 555.1, 350.4)">i</text><text xml:space="preserve" font-family="Courier,Courier" font-size="26.0" fill="#FEFFFE" transform="matrix(1.00, 0.00, -0.00, -1.00, 570.7, 350.4)">n</text><text xml:space="preserve" font-family="Courier,Courier" font-size="26.0" fill="#FEFFFE" transform="matrix(1.00, 0.00, -0.00, -1.00, 586.3, 350.4)">g</text><text xml:space="preserve" font-family="Courier,Courier" font-size="26.0" fill="#FEFFFE" transform="matrix(1.00, 0.00, -0.00, -1.00, 601.9, 350.4)"> </text><text xml:space="preserve" font-family="Courier,Courier" font-size="26.0" fill="#FEFFFE" transform="matrix(1.00, 0.00, -0.00, -1.00, 617.5, 350.4)">*</text><text xml:space="preserve" font-family="Courier,Courier" font-size="26.0" fill="#FEFFFE" transform="matrix(1.00, 0.00, -0.00, -1.00, 633.1, 350.4)">)</text><text xml:space="preserve" font-family="Courier,Courier" font-size="26.0" fill="#FEFFFE" transform="matrix(1.00, 0.00, -0.00, -1.00, 648.7, 350.4)">a</text><text xml:space="preserve" font-family="Courier,Courier" font-size="26.0" fill="#FEFFFE" transform="matrix(1.00, 0.00, -0.00, -1.00, 664.3, 350.4)">M</text><text xml:space="preserve" font-family="Courier,Courier" font-size="26.0" fill="#FEFFFE" transform="matrix(1.00, 0.00, -0.00, -1.00, 679.9, 350.4)">e</text><text xml:space="preserve" font-family="Courier,Courier" font-size="26.0" fill="#FEFFFE" transform="matrix(1.00, 0.00, -0.00, -1.00, 695.5, 350.4)">s</text><text xml:space="preserve" font-family="Courier,Courier" font-size="26.0" fill="#FEFFFE" transform="matrix(1.00, 0.00, -0.00, -1.00, 711.1, 350.4)">s</text><text xml:space="preserve" font-family="Courier,Courier" font-size="26.0" fill="#FEFFFE" transform="matrix(1.00, 0.00, -0.00, -1.00, 726.7, 350.4)">a</text><text xml:space="preserve" font-family="Courier,Courier" font-size="26.0" fill="#FEFFFE" transform="matrix(1.00, 0.00, -0.00, -1.00, 742.3, 350.4)">g</text><text xml:space="preserve" font-family="Courier,Courier" font-size="26.0" fill="#FEFFFE" transform="matrix(1.00, 0.00, -0.00, -1.00, 757.9, 350.4)">e</text><text xml:space="preserve" font-family="Courier,Courier" font-size="26.0" fill="#FEFFFE" transform="matrix(1.00, 0.00, -0.00, -1.00, 773.4, 350.4)">;</text><text xml:space="preserve" font-family="Courier,Courier" font-size="26.0" fill="#FEFFFE" transform="matrix(1.00, 0.00, -0.00, -1.00, 118.1, 288.4)">@</text><text xml:space="preserve" font-family="Courier,Courier" font-size="26.0" fill="#FEFFFE" transform="matrix(1.00, 0.00, -0.00, -1.00, 133.7, 288.4)">e</text><text xml:space="preserve" font-family="Courier,Courier" font-size="26.0" fill="#FEFFFE" transform="matrix(1.00, 0.00, -0.00, -1.00, 149.3, 288.4)">n</text><text xml:space="preserve" font-family="Courier,Courier" font-size="26.0" fill="#FEFFFE" transform="matrix(1.00, 0.00, -0.00, -1.00, 164.9, 288.4)">d</text></g></svg>