<?xml version="1.0" encoding="UTF-8" standalone="no"?><svg xmlns="http://www.w3.org/2000/svg" xmlns:xlink="http://www.w3.org/1999/xlink" clip-rule="evenodd" stroke-miterlimit="10" viewBox="0 0 1024 768"><desc>SVG generated by Keynote</desc><defs></defs><g transform="matrix(1.00, 0.00, -0.00, -1.00, 0.0, 768.0)"><g><clipPath id="clip0x6080014a36c0"><path d="M 0.0 768.0 L 1024.0 768.0 L 1024.0 0.0 L 0.0 0.0 Z M 0.0 768.0 "></path></clipPath><g clip-path="url(#clip0x6080014a36c0)"><image xlink:href="4E131E180F71435CE7831D195B770FC0.jpeg" width="2048.00" height="1536.00" transform="matrix(0.50, 0.00, -0.00, -0.50, 0.0, 768.0)"></image></g></g><text xml:space="preserve" font-family="Helvetica-Light,Helvetica" font-size="80.0" fill="#FEFFFF" transform="matrix(1.00, 0.00, -0.00, -1.00, 143.7, 307.4)">T</text><text xml:space="preserve" font-family="Helvetica-Light,Helvetica" font-size="80.0" fill="#FEFFFF" transform="matrix(1.00, 0.00, -0.00, -1.00, 188.2, 307.4)">h</text><text xml:space="preserve" font-family="Helvetica-Light,Helvetica" font-size="80.0" fill="#FEFFFF" transform="matrix(1.00, 0.00, -0.00, -1.00, 232.7, 307.4)">r</text><text xml:space="preserve" font-family="Helvetica-Light,Helvetica" font-size="80.0" fill="#FEFFFF" transform="matrix(1.00, 0.00, -0.00, -1.00, 257.9, 307.4)">e</text><text xml:space="preserve" font-family="Helvetica-Light,Helvetica" font-size="80.0" fill="#FEFFFF" transform="matrix(1.00, 0.00, -0.00, -1.00, 302.4, 307.4)">a</text><text xml:space="preserve" font-family="Helvetica-Light,Helvetica" font-size="80.0" fill="#FEFFFF" transform="matrix(1.00, 0.00, -0.00, -1.00, 346.8, 307.4)">d</text><text xml:space="preserve" font-family="Helvetica-Light,Helvetica" font-size="80.0" fill="#FEFFFF" transform="matrix(1.00, 0.00, -0.00, -1.00, 395.7, 307.4)">i</text><text xml:space="preserve" font-family="Helvetica-Light,Helvetica" font-size="80.0" fill="#FEFFFF" transform="matrix(1.00, 0.00, -0.00, -1.00, 413.5, 307.4)">n</text><text xml:space="preserve" font-family="Helvetica-Light,Helvetica" font-size="80.0" fill="#FEFFFF" transform="matrix(1.00, 0.00, -0.00, -1.00, 458.0, 307.4)">g</text><text xml:space="preserve" font-family="Helvetica-Light,Helvetica" font-size="80.0" fill="#FEFFFF" transform="matrix(1.00, 0.00, -0.00, -1.00, 506.8, 307.4)"> </text><text xml:space="preserve" font-family="Helvetica-Light,Helvetica" font-size="80.0" fill="#FEFFFF" transform="matrix(1.00, 0.00, -0.00, -1.00, 529.1, 307.4)">o</text><text xml:space="preserve" font-family="Helvetica-Light,Helvetica" font-size="80.0" fill="#FEFFFF" transform="matrix(1.00, 0.00, -0.00, -1.00, 573.6, 307.4)">n</text><text xml:space="preserve" font-family="Helvetica-Light,Helvetica" font-size="80.0" fill="#FEFFFF" transform="matrix(1.00, 0.00, -0.00, -1.00, 618.0, 307.4)"> </text><text xml:space="preserve" font-family="Helvetica-Light,Helvetica" font-size="80.0" fill="#FEFFFF" transform="matrix(1.00, 0.00, -0.00, -1.00, 640.3, 307.4)">M</text><text xml:space="preserve" font-family="Helvetica-Light,Helvetica" font-size="80.0" fill="#FEFFFF" transform="matrix(1.00, 0.00, -0.00, -1.00, 706.9, 307.4)">o</text><text xml:space="preserve" font-family="Helvetica-Light,Helvetica" font-size="80.0" fill="#FEFFFF" transform="matrix(1.00, 0.00, -0.00, -1.00, 751.4, 307.4)">b</text><text xml:space="preserve" font-family="Helvetica-Light,Helvetica" font-size="80.0" fill="#FEFFFF" transform="matrix(1.00, 0.00, -0.00, -1.00, 800.3, 307.4)">i</text><text xml:space="preserve" font-family="Helvetica-Light,Helvetica" font-size="80.0" fill="#FEFFFF" transform="matrix(1.00, 0.00, -0.00, -1.00, 818.0, 307.4)">l</text><text xml:space="preserve" font-family="Helvetica-Light,Helvetica" font-size="80.0" fill="#FEFFFF" transform="matrix(1.00, 0.00, -0.00, -1.00, 835.8, 307.4)">e</text><g><clipPath id="clip0x6080018bb240"><path d="M 786.0 420.0 L 188.0 420.0 L 188.0 804.0 L 786.0 804.0 Z M 785.6 419.9 "></path></clipPath><g clip-path="url(#clip0x6080018bb240)"><g><clipPath id="clip0x6080012af060"><path d="M 687.2 419.9 C 693.2 420.0 698.4 420.7 701.0 422.0 C 702.6 422.8 705.7 423.8 707.9 424.2 C 710.1 424.6 713.1 425.8 714.6 426.9 C 716.1 427.9 718.2 428.8 719.2 428.8 C 721.9 428.8 727.8 431.3 729.4 433.2 C 730.1 434.0 732.9 435.4 735.8 436.3 C 742.6 438.5 749.3 443.1 752.7 447.8 C 754.2 450.0 757.2 452.6 759.3 453.7 C 763.3 455.7 771.7 464.6 776.1 471.0 C 776.4 471.5 776.8 472.0 777.1 472.6 C 782.1 480.7 783.4 484.3 783.4 489.8 C 783.4 492.9 783.9 497.8 784.4 500.8 C 784.8 503.0 785.1 506.0 785.3 509.1 C 785.4 511.9 785.5 514.2 785.6 517.9 C 785.6 519.5 785.7 520.9 785.6 522.6 C 785.6 522.6 785.6 522.6 785.6 522.7 C 785.5 531.1 785.0 539.7 783.9 545.9 C 782.2 555.7 780.5 560.7 777.8 563.9 C 777.5 564.3 777.1 564.9 776.7 565.1 C 776.0 565.5 775.5 566.5 775.5 567.3 C 775.5 567.5 775.1 568.2 775.0 568.6 C 772.8 572.5 770.5 577.3 770.5 578.6 C 770.5 581.1 764.1 588.8 758.7 592.7 C 755.6 595.1 749.2 600.8 744.7 605.4 C 740.2 610.0 736.0 613.8 735.3 613.8 C 734.7 613.8 731.5 615.1 728.1 616.7 C 716.3 622.5 699.0 626.8 686.5 627.2 C 682.9 627.4 678.1 628.0 675.8 628.6 C 672.9 629.4 670.9 629.5 669.0 628.8 C 667.5 628.2 664.2 627.8 661.6 627.8 C 655.6 627.8 651.0 626.2 646.5 622.7 C 644.5 621.3 641.6 619.4 640.0 618.5 C 638.3 617.6 634.5 614.6 631.6 611.8 C 623.3 604.0 622.7 604.0 613.1 613.9 C 606.5 620.8 604.1 622.6 600.5 623.5 C 596.7 624.4 595.0 625.8 590.5 631.2 C 587.5 634.8 584.3 637.8 583.3 637.8 C 583.2 637.8 583.2 637.8 583.1 637.8 C 582.6 637.8 582.1 637.9 581.8 638.1 C 581.8 638.1 581.8 638.1 581.7 638.2 C 581.4 638.3 581.2 638.5 581.1 638.8 C 580.9 639.6 581.2 640.9 582.1 642.8 C 583.6 645.7 583.7 647.1 582.6 653.2 C 582.0 657.0 580.0 664.0 578.3 668.7 C 577.2 671.9 576.3 675.7 575.6 679.3 C 575.4 680.0 575.3 680.8 575.2 681.5 C 575.0 682.6 574.7 683.9 574.6 684.9 C 574.1 691.0 573.4 693.3 571.0 696.7 C 567.3 702.0 565.5 703.0 560.5 702.2 C 555.8 701.4 550.2 697.4 546.6 692.0 C 546.0 691.2 545.6 690.5 545.3 689.8 C 545.3 689.8 545.3 689.8 545.2 689.8 C 545.2 689.8 545.2 689.8 545.2 689.7 C 544.2 687.6 544.2 685.2 544.0 680.0 L 543.0 673.2 C 543.3 672.2 543.9 671.2 544.6 670.0 C 544.6 670.0 544.6 670.0 544.6 670.0 L 548.1 665.3 C 550.8 661.8 553.9 658.5 555.0 658.0 C 555.7 657.6 557.3 656.1 559.0 654.4 C 559.3 654.1 559.6 653.8 559.9 653.5 C 560.4 652.9 560.9 652.4 561.5 651.8 C 563.9 649.0 567.8 644.7 570.0 642.4 L 574.1 638.2 L 572.7 634.2 C 571.9 631.9 571.2 624.2 570.9 615.8 C 570.2 593.1 570.1 592.7 559.2 582.0 C 550.7 573.6 547.9 572.6 539.3 575.1 C 536.4 575.9 532.8 576.7 531.5 576.7 C 530.1 576.8 526.2 577.0 522.8 577.1 C 517.2 577.3 516.3 577.7 511.0 582.0 C 505.8 586.3 499.3 589.0 497.8 587.5 C 496.8 586.5 489.1 590.0 486.0 592.8 C 480.1 598.2 466.9 604.6 461.7 604.7 C 461.1 604.8 458.9 605.9 456.9 607.3 C 452.2 610.4 449.9 610.4 442.4 607.2 C 436.2 604.6 434.2 604.1 419.9 601.2 C 418.5 601.0 416.6 598.5 414.4 594.2 C 412.5 590.6 409.6 586.0 407.9 583.9 C 403.9 579.2 401.5 574.5 401.5 571.5 C 401.5 566.3 405.4 560.0 411.5 555.2 C 416.2 551.5 417.7 549.6 418.6 546.4 C 419.2 544.1 420.2 541.6 420.9 540.8 C 421.6 540.0 423.2 537.5 424.4 535.3 C 425.5 533.1 427.9 529.5 429.5 527.3 C 434.3 520.9 434.6 519.4 433.0 511.6 C 432.0 507.0 431.7 502.0 432.1 497.4 C 432.9 488.5 431.5 487.0 422.3 485.8 C 418.8 485.4 412.4 484.2 408.1 483.3 C 400.5 481.6 400.2 481.6 397.7 483.4 C 396.3 484.5 393.2 489.1 390.7 493.8 C 388.3 498.5 385.0 503.6 383.5 505.3 C 381.2 507.7 380.5 509.7 379.6 516.3 C 378.1 527.6 376.9 531.0 373.4 534.4 C 369.4 538.2 366.9 541.8 365.1 546.1 C 365.1 546.1 365.1 546.2 365.1 546.2 C 365.0 546.2 365.0 546.3 365.0 546.3 C 364.1 548.5 363.4 550.7 362.9 553.3 C 361.3 561.8 360.7 563.2 355.8 570.0 C 352.5 574.4 349.5 583.3 349.5 588.1 C 349.5 589.4 348.2 592.4 346.7 594.8 C 341.4 603.3 340.4 606.3 340.2 615.5 C 340.0 623.6 340.2 624.8 343.1 630.8 C 346.4 637.4 348.0 640.6 351.2 642.0 L 352.2 643.0 L 354.6 643.0 C 357.2 643.3 360.5 642.9 365.5 642.8 C 374.5 642.5 383.3 644.4 386.6 647.4 C 387.8 648.5 389.4 648.8 391.7 648.5 C 397.5 647.5 402.9 646.1 406.5 644.5 C 411.9 642.1 420.7 641.4 426.5 642.8 C 430.5 643.7 432.9 643.7 437.8 642.8 C 441.2 642.1 447.4 641.6 451.7 641.7 C 460.0 641.7 463.9 643.1 468.5 647.5 C 471.3 650.2 480.6 657.4 484.6 660.0 C 487.6 661.9 493.5 667.8 493.5 669.0 C 493.5 669.3 492.2 668.5 490.7 667.1 C 489.2 665.7 485.0 662.6 481.3 660.2 C 477.6 657.9 474.4 655.4 474.0 654.8 C 473.6 654.2 471.8 653.1 469.9 652.3 C 468.0 651.5 464.8 649.5 462.7 647.9 C 457.4 643.7 452.1 643.2 440.5 645.8 C 436.5 646.7 433.9 647.2 431.6 647.3 C 429.3 647.5 427.3 647.3 424.5 646.8 C 416.2 645.5 411.7 645.9 402.5 648.7 C 394.0 651.3 389.3 651.1 377.6 647.9 C 373.6 646.7 367.5 645.8 364.1 645.7 C 352.5 645.5 347.0 642.7 341.8 634.6 C 340.5 632.4 338.7 630.4 337.8 630.1 C 335.6 629.2 330.8 635.1 329.5 640.3 C 326.0 653.8 324.3 657.8 321.1 660.3 C 319.3 661.7 314.4 667.8 310.4 673.8 C 303.3 684.4 302.6 685.1 294.5 690.0 C 289.8 692.8 283.3 697.5 280.0 700.5 C 271.7 708.0 270.0 708.8 260.8 708.7 C 255.5 708.6 251.0 709.3 247.0 710.6 C 243.0 711.9 240.4 712.5 238.2 712.5 C 237.0 712.5 235.8 712.2 234.7 711.9 C 233.6 711.5 232.5 711.0 231.2 710.3 C 227.0 707.9 217.6 704.3 212.6 703.1 C 211.2 702.8 208.4 699.7 205.4 695.4 C 202.7 691.5 198.6 686.1 196.3 683.5 C 192.2 678.9 192.1 678.6 191.9 670.8 C 191.7 666.5 190.6 659.4 189.4 655.2 C 187.1 646.8 187.3 642.5 190.3 638.6 C 193.3 634.8 195.9 629.5 197.0 625.5 C 197.3 624.8 197.4 623.9 197.3 623.1 C 197.4 622.9 197.5 622.6 197.5 622.4 C 197.5 618.7 198.2 615.5 199.5 613.0 C 200.9 610.9 202.5 608.9 204.1 607.6 C 212.0 602.1 216.5 598.3 217.8 595.5 C 219.8 591.3 226.3 586.0 232.3 583.8 C 240.9 580.5 246.4 577.7 249.1 575.3 C 253.6 571.1 260.0 568.6 266.0 568.7 C 269.1 568.7 272.0 569.0 272.5 569.3 C 273.1 569.6 279.2 570.0 286.2 570.0 L 297.1 570.0 C 298.3 570.4 299.4 570.7 300.5 571.5 L 306.4 577.7 C 310.6 582.0 315.9 586.7 318.2 588.1 C 323.6 591.5 325.0 593.8 326.5 602.0 C 327.7 608.8 332.5 617.5 334.4 616.3 C 334.9 616.0 335.6 613.6 336.0 611.0 C 336.9 603.6 339.2 598.5 343.0 594.8 C 343.6 594.1 343.8 593.7 344.3 593.2 C 344.7 592.8 345.2 592.3 345.5 591.6 C 345.8 591.1 345.9 590.4 346.0 589.8 C 346.1 589.6 346.1 589.5 346.1 589.3 C 346.2 588.5 346.5 587.9 346.5 586.8 C 346.5 580.5 348.2 574.8 351.3 571.2 C 359.4 561.5 359.9 560.6 361.1 551.6 C 362.0 544.4 362.7 542.2 365.1 539.3 C 366.6 537.3 369.4 534.0 371.1 531.8 C 373.8 528.5 375.2 524.2 376.0 517.3 C 377.1 506.6 377.7 504.9 381.8 499.9 C 384.1 497.1 388.1 492.0 390.8 488.7 C 396.4 481.6 400.9 478.5 404.5 479.1 C 420.8 482.0 424.6 482.9 428.6 484.6 C 434.5 487.1 436.0 491.0 435.1 500.7 C 434.7 505.2 435.0 509.3 436.0 513.1 C 437.3 518.4 437.3 519.1 435.4 524.0 C 434.2 526.9 432.5 530.2 431.6 531.3 C 427.2 536.2 423.5 543.1 423.5 546.1 C 423.5 548.8 422.1 550.5 413.5 558.6 C 404.9 566.6 403.5 568.3 403.5 571.1 C 403.5 571.1 403.5 571.1 403.5 571.1 C 403.5 571.1 403.5 571.1 403.5 571.1 C 403.5 571.1 403.5 571.1 403.5 571.2 C 403.5 573.5 404.4 575.3 407.0 577.8 C 411.0 581.6 418.8 592.9 420.4 597.1 C 421.1 599.0 422.1 599.7 424.2 599.7 C 429.8 599.7 438.2 601.4 440.7 603.0 C 442.2 604.0 445.1 605.0 447.3 605.4 C 450.5 605.9 451.9 605.6 454.0 603.9 C 455.5 602.7 457.7 601.8 458.8 601.8 C 464.6 601.8 476.6 596.5 480.9 592.1 C 483.9 589.0 494.1 584.8 498.5 584.8 C 501.2 584.8 505.5 582.5 507.9 579.8 C 512.9 574.3 515.7 573.5 531.3 573.1 C 541.7 572.8 547.2 572.8 550.9 573.6 C 551.0 573.6 551.0 573.6 551.1 573.6 C 554.8 574.4 556.8 576.2 560.2 579.6 C 563.3 582.7 566.9 586.7 568.1 588.5 C 572.0 594.0 574.2 603.4 575.0 617.3 C 575.5 626.8 576.3 632.2 578.0 634.4 C 578.0 634.4 578.0 634.5 578.0 634.5 C 578.0 634.5 578.1 634.6 578.1 634.6 C 578.2 634.8 578.4 635.0 578.6 635.2 C 578.9 635.5 579.3 635.8 579.7 635.8 C 579.8 635.8 579.9 635.7 580.0 635.7 C 581.9 635.6 584.4 633.2 588.0 628.8 C 592.3 623.4 594.9 621.1 599.7 618.7 C 603.7 616.7 608.1 613.3 612.6 608.6 L 619.4 601.5 L 616.2 597.9 C 614.4 595.9 610.6 592.1 607.8 589.5 C 601.0 583.1 587.7 560.8 585.9 552.7 C 585.5 550.8 584.6 548.4 583.9 547.3 C 580.2 541.7 575.7 522.9 577.6 521.1 C 578.0 520.6 578.5 516.6 578.6 512.2 C 578.8 505.7 579.3 503.3 581.6 498.9 C 583.2 496.0 584.5 493.0 584.5 492.3 C 584.5 491.6 585.3 489.9 586.4 488.6 C 587.5 487.2 588.6 484.8 589.0 483.2 C 590.4 477.3 593.5 472.1 599.9 464.8 C 603.5 460.7 606.5 456.8 606.5 456.1 C 606.5 454.0 613.6 446.4 618.8 442.8 C 621.7 440.8 626.9 437.2 630.5 434.7 C 638.2 429.2 644.6 426.5 653.5 424.8 C 657.0 424.2 664.1 422.7 669.2 421.6 C 674.7 420.4 681.3 419.8 687.2 419.9 Z M 295.7 570.7 L 289.8 571.0 C 280.8 572.0 270.4 572.3 266.1 571.3 C 262.0 570.4 257.3 572.4 251.1 577.5 C 247.6 580.4 238.6 585.0 230.9 587.9 C 226.0 589.7 224.9 590.7 220.6 597.1 C 216.2 603.8 210.8 608.6 204.0 611.9 C 201.1 613.3 201.1 613.4 201.4 620.5 C 201.6 627.0 201.3 628.4 198.5 633.2 C 196.8 636.1 194.7 639.1 193.9 639.8 C 190.5 642.7 190.3 644.5 192.9 652.0 C 195.9 660.6 196.6 666.8 195.3 672.1 C 194.4 675.8 194.5 676.1 200.5 683.1 C 203.8 687.0 207.7 692.6 209.1 695.4 C 211.2 699.7 212.1 700.7 214.8 701.1 C 221.8 702.2 227.3 704.1 233.2 707.3 C 240.1 711.1 239.9 711.0 240.6 710.3 C 242.2 708.8 253.6 707.0 260.8 707.0 L 269.1 707.0 L 276.0 698.7 C 281.6 692.2 284.4 689.8 291.1 686.2 C 297.5 682.7 299.5 681.0 300.4 678.6 C 301.6 675.1 304.8 671.0 315.6 659.5 C 322.8 651.6 325.2 647.6 326.1 641.5 C 326.5 638.5 331.4 627.8 333.5 625.2 C 334.5 624.0 334.0 623.0 330.7 619.4 C 326.6 615.0 324.6 610.1 322.4 599.0 C 321.2 592.8 321.0 592.6 315.1 588.6 C 311.7 586.4 306.0 581.4 302.3 577.6 L 295.7 570.7 Z M 574.8 642.3 C 574.3 642.3 573.7 642.7 572.9 643.2 C 572.7 643.2 572.6 643.0 572.4 643.1 C 571.2 643.1 569.8 644.8 566.9 649.3 C 565.1 652.2 562.1 655.6 560.3 656.9 C 558.6 658.2 554.5 662.0 551.2 665.3 C 545.6 671.0 545.4 671.5 545.9 675.3 C 547.0 684.3 548.6 689.2 551.5 692.8 C 553.2 695.0 555.9 697.7 557.5 698.8 L 560.5 700.9 L 564.7 696.3 C 568.1 692.5 568.8 691.0 568.6 688.4 C 568.5 686.5 569.4 682.8 570.8 679.7 C 573.1 674.5 574.0 672.0 574.0 670.3 C 574.6 668.9 575.2 667.4 575.5 665.9 C 576.0 663.1 576.9 658.5 577.5 655.7 C 578.7 649.7 578.6 646.6 577.5 644.6 C 577.2 644.2 577.0 643.8 576.6 643.5 C 575.8 642.7 575.3 642.4 574.8 642.3 Z M 493.2 673.9 C 493.4 673.9 493.5 673.9 493.5 674.1 C 493.5 675.1 490.6 679.1 488.3 682.0 C 487.4 682.9 486.3 683.9 485.1 685.0 C 484.1 685.3 479.7 689.2 471.5 697.1 C 467.8 700.7 465.7 701.8 460.0 703.2 C 449.0 705.9 445.9 706.9 443.7 708.5 C 443.3 708.8 442.8 709.1 442.5 709.4 C 441.1 710.7 437.3 712.8 434.1 714.2 C 428.9 716.6 427.3 717.2 417.2 717.0 L 406.1 716.0 L 403.3 720.3 C 401.3 723.2 400.5 725.5 400.5 729.0 C 400.5 731.6 399.7 735.6 398.8 737.8 L 397.2 741.9 L 400.9 745.7 C 403.3 748.2 405.4 751.8 406.9 756.4 C 407.4 757.8 407.8 758.8 408.3 760.1 C 408.3 760.4 408.5 760.8 408.5 761.0 C 408.5 761.7 408.9 762.5 409.4 763.1 C 411.0 767.4 412.5 771.2 413.7 773.7 C 415.2 776.5 422.1 779.8 433.3 782.8 C 437.9 784.1 442.9 786.1 444.3 787.3 C 446.3 788.9 449.9 789.9 458.5 791.2 C 470.5 793.1 472.6 793.8 476.1 797.0 C 480.6 801.1 497.1 800.0 503.9 795.2 C 507.1 792.9 509.0 793.5 506.1 795.8 C 504.6 797.0 503.5 798.6 503.5 799.3 C 503.5 800.1 502.7 800.8 501.7 800.8 C 500.7 800.8 498.6 801.7 497.0 802.7 C 495.0 804.1 492.9 804.6 490.6 804.3 C 489.1 804.1 487.6 803.8 486.0 803.4 C 481.4 802.1 476.8 800.0 473.9 797.7 C 471.9 796.1 469.5 794.8 468.6 794.7 C 447.2 793.8 441.7 792.9 438.1 789.8 C 437.4 789.2 436.3 788.6 435.3 788.1 C 434.5 787.6 433.8 787.3 433.0 787.1 C 432.3 786.9 431.6 786.6 431.1 786.5 C 425.5 785.6 412.7 778.9 410.5 775.8 C 408.5 773.1 405.8 766.3 404.7 761.8 C 404.4 760.4 403.0 757.3 401.6 754.8 C 394.4 741.6 394.5 742.3 397.3 730.7 C 399.5 721.9 400.3 720.2 404.0 716.8 C 407.0 714.0 417.4 711.7 421.9 712.9 C 424.9 713.7 428.4 712.7 431.8 710.2 C 432.8 709.7 433.7 708.9 434.6 708.0 C 434.9 707.7 435.3 707.5 435.7 707.2 C 437.3 705.9 439.8 704.6 443.2 703.4 C 445.7 702.9 450.4 701.8 454.9 700.9 C 461.8 699.4 464.3 698.4 465.7 696.6 C 469.7 691.3 475.3 686.5 480.5 683.8 C 483.6 682.2 487.7 679.1 489.8 676.9 C 491.3 675.2 492.6 674.0 493.2 673.9 Z M 525.1 788.1 C 525.2 788.3 525.0 788.8 524.6 789.9 C 524.1 791.2 522.7 792.5 521.4 792.8 C 520.1 793.1 516.7 792.9 514.0 793.0 L 509.0 793.0 L 515.6 791.9 C 519.2 791.0 523.0 789.7 523.9 788.9 C 524.6 788.3 525.0 788.0 525.1 788.1 Z M 525.1 788.1 "></path></clipPath><g clip-path="url(#clip0x6080012af060)"><image xlink:href="401A181E613CE0B9434D54C55352A10B.png" width="700.00" height="466.00" transform="matrix(-1.00, 0.00, 0.00, 1.00, 842.0, 367.0)"></image></g></g></g></g></g></svg>